<svg xmlns="http://www.w3.org/2000/svg" viewBox="0 0 800 600" preserveAspectRatio="xMidYMid slice">
  <defs>
    <linearGradient id="bg" x1="0" y1="0" x2="1" y2="1">
      <stop offset="0" stop-color="#DEDAD4"/>
      <stop offset="1" stop-color="#C8C3BB"/>
    </linearGradient>
  </defs>
  <rect width="800" height="600" fill="url(#bg)"/>
  <g transform="translate(120 180)" fill="none" stroke="#111111" stroke-width="10" stroke-linejoin="round" stroke-linecap="round">
    <path d="M40 220 Q40 250 80 250 L520 250 Q560 250 560 215 L560 190 Q560 170 535 165 L380 140 Q320 90 250 70 Q150 45 90 90 L70 150 Q40 165 40 200 Z" fill="#F5F3EF"/>
    <path d="M90 90 Q150 130 250 135"/>
    <path d="M250 70 L270 140"/>
    <path d="M320 95 L300 150"/>
    <path d="M380 140 L360 200" stroke="#D42B2B"/>
    <path d="M40 215 L560 215" stroke="#D42B2B"/>
  </g>
  <circle cx="250" cy="430" r="34" fill="#111111"/>
  <circle cx="530" cy="430" r="34" fill="#111111"/>
</svg>
